<svg id="Ebene_1" data-name="Ebene 1" xmlns="http://www.w3.org/2000/svg" viewBox="0 0 128 128">
  <title>LinuxIconplant</title>
  <g id="ju26u5.tif">
    <path d="M67.46,0c.92.23,1.85.44,2.76.69C77.08,2.57,80.81,7.48,83,13.91a48.49,48.49,0,0,1,2,12.77c.2,3.6.48,7.21.94,10.79a17,17,0,0,0,3.15,7.13c4.77,7.16,9.58,14.3,14.19,21.58a25.54,25.54,0,0,1,4.17,16.63c-.2,1.94-.56,3.86-.9,5.78a1.84,1.84,0,0,0,.36,1.8,9,9,0,0,1,2.35,6.39,6.92,6.92,0,0,0,3.85,6.52,15.35,15.35,0,0,0,1.66.86c4.1,1.69,4.21,5.73.75,8.31a27.5,27.5,0,0,1-2.43,1.52l-15,8.91a4.93,4.93,0,0,0-.89.69c-2.06,2-4.27,3.8-7.21,4.41H86.21a9.74,9.74,0,0,1-6.12-5.07,2,2,0,0,0-1.24-.64,60.74,60.74,0,0,0-21.84-.6c-1.8.28-3.62.5-5.41.88a2.71,2.71,0,0,0-1.49,1.05c-2,2.76-4.63,4.13-7.87,3.41a102,102,0,0,1-11.68-3.43,76.55,76.55,0,0,0-13.42-3.17,25.74,25.74,0,0,1-6.13-2c-1.9-.83-2.4-2.37-1.81-4.36a35.27,35.27,0,0,0,1.37-4.65,25.52,25.52,0,0,0,0-4.79,10.22,10.22,0,0,0-.48-1.8c-.86-3.42.25-5.36,3.61-6.32,1.56-.44,3.14-.79,4.68-1.29a8.7,8.7,0,0,0,5.17-4.41,23.91,23.91,0,0,1,2.37-3,1.65,1.65,0,0,0,.4-1.12c-.74-2.85-.11-5.44,1.05-8.09,1.73-4,3.34-8.06,4.75-12.18A47.32,47.32,0,0,1,40,52.26c1.24-1.57,2.3-3.29,3.63-4.77a12.37,12.37,0,0,0,3-9.11c-.21-5.65-.57-11.3-.77-17a32.28,32.28,0,0,1,.93-10c1.56-5.46,5.41-8.51,10.58-10.15C59.06.72,60.78.41,62.46,0ZM87.91,89a34.57,34.57,0,0,0,.38-16.27c-1.76-7.29-4.72-14.17-7.75-21-1.86-4.18-3.93-8.25-5.9-12.37a1.17,1.17,0,0,0-1.82-.62c-1.82.91-3.65,1.8-5.45,2.73C64.89,42.69,62.44,44,60,45.28a3.64,3.64,0,0,1-3.49,0,38.32,38.32,0,0,1-4.29-2.72A31.25,31.25,0,0,1,49.39,40c0,.68,0,1.3,0,1.91a21.76,21.76,0,0,1-3.61,9.84,36,36,0,0,0-3.05,5.67c-1.51,3.6-2.53,7.42-4.29,10.88a32.21,32.21,0,0,0-3.89,12.24c-.28,4,.14,7.76,3.43,10.6,1.48,1.28,3,2.55,4.44,3.83,2.3,2,4.65,3.91,6.85,6a3.54,3.54,0,0,1,.68,4.57,17,17,0,0,1-2.81,2.64c1.45,1.66,3.1,3.58,4.81,5.46a1.61,1.61,0,0,0,1.11.38c3.7-.05,7.4,0,11.08-.24,7.19-.41,12.72-4,17.28-9.33a3.62,3.62,0,0,0,.74-2c.23-3.77.36-7.56.54-11.34A2.07,2.07,0,0,1,84.59,89,28.11,28.11,0,0,1,87.91,89ZM47.64,116.64a13.62,13.62,0,0,0-1.22-3.1c-1.63-2.5-3.56-4.81-5.2-7.31-2.1-3.19-3.92-6.57-6.07-9.74a27.51,27.51,0,0,0-4.32-4.95c-1.74-1.57-3-1.18-4.19.88-.54,1-1.08,2-1.59,3A4.88,4.88,0,0,1,21.76,98c-1.61.4-3.23.78-4.83,1.21-2.68.71-3.17,1.49-2.57,4.21a12.45,12.45,0,0,1-.31,7,23.29,23.29,0,0,0-.75,2.63c-.42,1.85,0,2.66,1.85,3.14a35.16,35.16,0,0,0,3.78.77,51.43,51.43,0,0,1,13.54,3.65A47.41,47.41,0,0,0,40,123.12C43.74,124.08,47.66,121,47.64,116.64ZM88.57,93.06c-1.55-.37-2.17,0-2.14,1.53,0,2.16.22,4.32.27,6.48.11,4.7-1,9.24-1.87,13.82a8.86,8.86,0,0,0,1,6.63c1.29,2,3.17,2.78,5.36,1.79a18,18,0,0,0,4.71-3,37.56,37.56,0,0,1,8.39-6c1.86-.93,3.7-1.91,5.52-2.89a32.09,32.09,0,0,0,3-1.77c1.22-.82,1.25-1.68.1-2.6a11.36,11.36,0,0,0-2.4-1.56,7.33,7.33,0,0,1-4.38-5.54c-.21-1-.16-2.16-.38-3.21a16.62,16.62,0,0,0-.92-2.47c-.36.24-.45.27-.49.34a2.26,2.26,0,0,0-.26.42c-1.91,3.81-5.17,5.47-9.26,5.76-3.21.23-5.18-1.2-5.86-4.33A32.61,32.61,0,0,1,88.57,93.06ZM58.84,42.54l.07.17a19.71,19.71,0,0,0,2.39-.93q4.1-2.25,8.13-4.61c.82-.48,2.27-.76,2-1.91a4,4,0,0,0-2.15-2.13A83.71,83.71,0,0,0,61,30a3.7,3.7,0,0,0-2.8.28c-2.41,1.62-4.67,3.45-6.94,5.27a1.44,1.44,0,0,0-.2,1.24c.51,1.75,5.83,5.66,7.68,5.72ZM70,30.24c1.39.8,1.56.78,2.5-.2A8.77,8.77,0,0,0,73,18.9a5.29,5.29,0,0,0-8.36-.24,8.06,8.06,0,0,0-1.94,7c.32,2,.86,2.57,2.71,2.73a24,24,0,0,1,.45-4.1,2.81,2.81,0,0,1,2.76-2.17,3.11,3.11,0,0,1,2.88,2.21A5.12,5.12,0,0,1,70,30.24ZM54.94,28.47c.78-.46,1.46-.84,2.12-1.26a.94.94,0,0,0,.39-.57,8.75,8.75,0,0,0-1.49-7c-1.78-2.31-4.41-2.33-6.23-.06A8.48,8.48,0,0,0,48,26.06c.27,2.33,1,4.44,3.31,5.74L53,30.37a4.71,4.71,0,0,1-3-6c.27-1,.79-2.07,1.88-2a3.41,3.41,0,0,1,2.22,1.28A5.34,5.34,0,0,1,54.94,28.47Z"/>
  </g>
</svg>