<svg id="Ebene_1" data-name="Ebene 1" xmlns="http://www.w3.org/2000/svg" viewBox="0 0 24 24">
  <title>AppleIcon24x24</title>
  <g id="IJl5xC.tif">
    <g>
      <path d="M21.57,8a5.35,5.35,0,0,0,.73,9.61,14.76,14.76,0,0,1-4,5.73,2.74,2.74,0,0,1-3,.32,6,6,0,0,0-5.56,0A3.07,3.07,0,0,1,6.07,23a13.62,13.62,0,0,1-3.31-5A12,12,0,0,1,2,10.59,6.35,6.35,0,0,1,7.43,5.67a5.77,5.77,0,0,1,2.56.4,6.08,6.08,0,0,0,4.77,0A5.66,5.66,0,0,1,21.57,8Z"/>
      <path d="M16.5,0A5.26,5.26,0,0,1,12.08,5.8c-.43,0-.48-.18-.48-.5a5.11,5.11,0,0,1,1.72-3.79A5.22,5.22,0,0,1,16.5,0Z"/>
    </g>
  </g>
</svg>
