<svg xmlns="http://www.w3.org/2000/svg" version="1.1" viewBox="0 0 534 112">
  <defs>
    <style>
      .cls-1 {
        fill: #fff;
      }
    </style>
  </defs>
  <g>
    <g>
      <g>
        <path class="cls-1" d="M318.36,49.95v58.98h19.55V33.97l-15.31,8.69c-2.62,1.49-4.24,4.27-4.24,7.28Z"/>
        <circle class="cls-1" cx="328.13" cy="11.18" r="11.18"/>
        <path class="cls-1" d="M282.05,0v108.92h19.55V16.22c0-2.98-1.58-5.74-4.16-7.24L282.05,0Z"/>
        <path class="cls-1" d="M432.85,61.46c0-21.59-17.5-39.1-39.1-39.1s-39.1,17.5-39.1,39.1v47.48h19.55c0-9.18,0-38.42,0-47.48,0-10.8,8.75-19.55,19.55-19.55s19.55,8.75,19.55,19.55v47.47h19.55v-47.47Z"/>
        <path class="cls-1" d="M39.58,50.75c-2.09-2.09-4.94-3.27-7.9-3.27h-12.13v-27.93h36.31c7.71,0,13.96,6.25,13.96,13.96s-6.25,13.96-13.96,13.96h-7.7l17.95,17.95c13.49-4.33,23.26-16.98,23.26-31.91C89.36,15,74.36,0,55.85,0H0v67.02h22.14c3.7,0,7.25,1.47,9.87,4.09l35.35,35.34c1.57,1.57,3.7,2.45,5.92,2.45h24.45l-58.16-58.16Z"/>
        <rect class="cls-1" x="449.61" y="0" width="19.55" height="108.93"/>
        <path class="cls-1" d="M533.38,108.91l-44.68-44.68,39.1-39.1h-24.45c-2.22,0-4.35.88-5.92,2.45l-36.65,36.64,42.23,42.22c1.57,1.57,3.7,2.45,5.92,2.45h24.46Z"/>
        <path class="cls-1" d="M228.99,22.36c-21.59,0-39.1,17.5-39.1,39.1v11.17c0,21.59,17.5,39.1,39.1,39.1s39.1-17.5,39.1-39.1v-11.17c0-21.59-17.5-39.1-39.1-39.1ZM248.54,72.61c0,10.8-8.75,19.55-19.55,19.55s-19.55-8.75-19.55-19.55v-11.17c0-10.8,8.75-19.55,19.55-19.55s19.55,8.75,19.55,19.55v11.17Z"/>
        <path class="cls-1" d="M168.6,35.2c-7.15-7.89-17.48-12.84-28.97-12.84s-21.47,4.79-28.6,12.44c-6.47,6.94-10.45,16.24-10.49,26.47,0,2.88,0,7.6,0,10.49-.23,10.81,3.92,20.65,10.81,27.86,7.12,7.46,17.16,12.1,28.28,12.1s21.44-4.78,28.57-12.42c3.42-3.66,6.14-7.98,7.96-12.74h-20.74c-1.26,0-2.49.42-3.47,1.21-3.36,2.73-7.65,4.37-12.32,4.37-8.85,0-16.33-5.89-18.73-13.96h52.24c3.08,0,5.59-2.5,5.59-5.59v-11.15c0-10.1-3.83-19.31-10.12-26.25ZM120.28,58.64c1.36-9.47,9.5-16.76,19.35-16.76s17.99,7.28,19.35,16.76h-38.69Z"/>
      </g>
    </g>
  </g>
</svg>